<?xml version="1.0" encoding="UTF-8" standalone="no"?>
<!-- Created with Inkscape (http://www.inkscape.org/) -->

<svg
   width="960mm"
   height="960mm"
   viewBox="0 0 960 960"
   version="1.1"
   id="svg1"
   sodipodi:docname="MANAGE - LOGO - Copy.svg"
   inkscape:version="1.3.2 (091e20e, 2023-11-25, custom)"
   xmlns:inkscape="http://www.inkscape.org/namespaces/inkscape"
   xmlns:sodipodi="http://sodipodi.sourceforge.net/DTD/sodipodi-0.dtd"
   xmlns="http://www.w3.org/2000/svg"
   xmlns:svg="http://www.w3.org/2000/svg">
  <sodipodi:namedview
     id="namedview1"
     pagecolor="#ffffff"
     bordercolor="#000000"
     borderopacity="0.25"
     inkscape:showpageshadow="2"
     inkscape:pageopacity="0.0"
     inkscape:pagecheckerboard="0"
     inkscape:deskcolor="#d1d1d1"
     inkscape:document-units="mm"
     showgrid="false"
     inkscape:zoom="0.11196396"
     inkscape:cx="875.28165"
     inkscape:cy="1826.4806"
     inkscape:window-width="1600"
     inkscape:window-height="837"
     inkscape:window-x="-8"
     inkscape:window-y="-8"
     inkscape:window-maximized="1"
     inkscape:current-layer="layer1">
    <inkscape:grid
       id="grid14"
       units="mm"
       originx="-114.5"
       originy="59.500002"
       spacingx="0.99999997"
       spacingy="0.99999997"
       empcolor="#0099e5"
       empopacity="0.30196078"
       color="#0099e5"
       opacity="0.14901961"
       empspacing="5"
       dotted="false"
       gridanglex="30"
       gridanglez="30"
       visible="false" />
  </sodipodi:namedview>
  <defs
     id="defs1">
    <inkscape:path-effect
       effect="bend_path"
       id="path-effect19"
       is_visible="true"
       lpeversion="1"
       bendpath="m 380.39212,75.958454 c 137.75732,-89.002576 281.12704,-83.7169077 429.16528,0"
       prop_scale="1"
       scale_y_rel="false"
       vertical="false"
       hide_knot="false"
       bendpath-nodetypes="cc" />
    <rect
       x="2138.188"
       y="1173.5919"
       width="235.79016"
       height="300.09656"
       id="rect2" />
    <inkscape:path-effect
       effect="bend_path"
       id="path-effect19-0"
       is_visible="true"
       lpeversion="1"
       bendpath="m 380.39212,75.958454 c 137.75732,-89.002576 281.12704,-83.7169077 429.16528,0"
       prop_scale="1"
       scale_y_rel="false"
       vertical="false"
       hide_knot="false"
       bendpath-nodetypes="cc" />
  </defs>
  <g
     inkscape:label="Layer 1"
     inkscape:groupmode="layer"
     id="layer1"
     transform="translate(-114.5,59.5)">
    <circle
       style="fill:#002255;stroke-width:0.264583"
       id="path14"
       cx="594.5"
       cy="420.5"
       r="480" />
    <path
       id="circle1"
       style="fill:#ffffff;stroke-width:0.264583"
       d="m 308.0472,194.87475 v 10.57868 c 7.93406,2.2039 13.44376,5.06909 16.52923,8.59534 3.08546,3.52625 4.62814,8.59511 4.62814,15.20682 v 382.15807 c 0,6.83211 -1.54268,12.01131 -4.62814,15.53755 -3.08547,3.52625 -8.59517,6.39092 -16.52923,8.59483 v 10.5792 h 132.56504 v -10.5792 c -7.93406,-2.20391 -13.44376,-5.06858 -16.52923,-8.59483 -3.08546,-3.52624 -4.62865,-8.70544 -4.62865,-15.53755 V 334.38199 L 585.7393,639.84397 761.28052,334.38199 v 277.03167 c 0,6.83211 -1.65301,12.12113 -4.95887,15.86777 -3.08547,3.52625 -8.48483,6.28109 -16.1985,8.26461 v 10.5792 H 880.9528 v -10.5792 c -7.93406,-2.20391 -13.44375,-5.06858 -16.52922,-8.59483 -3.08547,-3.52624 -4.62814,-8.70544 -4.62814,-15.53755 V 229.25559 c 0,-6.61171 1.54267,-11.68057 4.62814,-15.20682 3.08547,-3.52625 8.59516,-6.39144 16.52922,-8.59534 V 194.87475 H 710.37045 v 10.57868 c 11.01953,1.10195 16.52922,6.17132 16.52922,15.20734 0,4.6282 -2.75485,12.01107 -8.26461,22.14903 L 594.00391,465.62514 471.02588,238.8426 c -3.08546,-5.73015 -4.62814,-10.79901 -4.62814,-15.20682 0,-9.47679 5.1792,-15.53767 15.53756,-18.18235 v -10.57868 z" />
    <rect
       style="fill:#ffffff;stroke-width:0.265055"
       id="rect14"
       width="20.057631"
       height="388.70303"
       x="290.48984"
       y="220.63393" />
    <rect
       style="fill:#ffffff;stroke-width:0.265055"
       id="rect14-3"
       width="20.057631"
       height="388.70303"
       x="879.45898"
       y="220.5948" />
    <circle
       style="fill:#ffffff;stroke-width:0.264583"
       id="path18"
       cx="216.86913"
       cy="420.5"
       r="51.92038" />
    <circle
       style="fill:#ffffff;stroke-width:0.264583"
       id="path18-3"
       cx="972.66217"
       cy="420.5"
       r="51.92038" />
    <path
       style="fill:#ffffff;stroke-width:0.324475"
       id="rect18"
       width="429.16528"
       height="28.484421"
       x="379.62091"
       y="54.775284"
       inkscape:path-effect="#path-effect19"
       sodipodi:type="rect"
       d="M 372.57182,64.054962 C 405.96068,42.44352 442.19766,24.754029 480.59316,13.01501 516.3725,2.1021523 553.79871,-3.3926803 591.25087,-3.0529561 l 2e-5,2e-7 c 38.15145,0.3754602 75.9818,6.6776551 112.24462,17.5310649 l 2e-5,7e-6 c 39.61055,11.858498 77.35023,28.86426 112.97854,49.029905 l -14.01752,24.79673 C 768.31206,69.028026 732.52709,52.854207 695.3421,41.770677 l -10e-6,-2e-6 C 661.35317,31.636966 626.15298,25.731652 590.98794,25.430251 l -3e-5,3e-6 c -34.48487,-0.3244 -69.05374,4.757891 -102.08569,14.83034 -35.51236,10.800579 -69.36473,27.38215 -100.86751,47.71619 z" />
    <path
       style="fill:#ffffff;stroke-width:0.324475"
       id="rect18-7"
       width="429.16528"
       height="28.484421"
       x="379.62091"
       y="54.775284"
       sodipodi:type="rect"
       transform="rotate(179.69186,595.34956,418.15219)"
       d="M 372.57182,64.054962 C 405.96068,42.44352 442.19766,24.754029 480.59316,13.01501 516.3725,2.1021523 553.79871,-3.3926803 591.25087,-3.0529561 l 2e-5,2e-7 c 38.15145,0.3754602 75.9818,6.6776551 112.24462,17.5310649 l 2e-5,7e-6 c 39.61055,11.858498 77.35023,28.86426 112.97854,49.029905 l -14.01752,24.79673 C 768.31206,69.028026 732.52709,52.854207 695.3421,41.770677 l -10e-6,-2e-6 C 661.35317,31.636966 626.15298,25.731652 590.98794,25.430251 l -3e-5,3e-6 c -34.48487,-0.3244 -69.05374,4.757891 -102.08569,14.83034 -35.51236,10.800579 -69.36473,27.38215 -100.86751,47.71619 z"
       inkscape:path-effect="#path-effect19-0" />
  </g>
</svg>
